Coordinates
version=1
nRows=17
nColumns=36
inDegrees=yes

Units are S.I. units (second, meters, Newtons, ...)
If the header above contains a line with 'inDegrees', this indicates whether rotational values are in degrees (yes) or radians (no).

endheader
time	pelvis_tilt	pelvis_list	pelvis_rotation	pelvis_tx	pelvis_ty	pelvis_tz	hip_flexion_r	hip_adduction_r	hip_rotation_r	knee_angle_r	knee_angle_r_beta	ankle_angle_r	subtalar_angle_r	mtp_angle_r	hip_flexion_l	hip_adduction_l	hip_rotation_l	knee_angle_l	knee_angle_l_beta	ankle_angle_l	subtalar_angle_l	mtp_angle_l	lumbar_extension	lumbar_bending	lumbar_rotation	arm_flex_r	arm_add_r	arm_rot_r	elbow_flex_r	pro_sup_r	arm_flex_l	arm_add_l	arm_rot_l	elbow_flex_l	pro_sup_l
     30.50000000	     -3.99033621	      4.86741194	     -1.44177733	      0.93565273	      0.79670079	      0.70761377	     -8.53457607	     -5.85423646	     -1.32433813	     32.82957165	      0.57298412	     -1.70082812	     -8.41728747	     -7.49999987	     28.74422414	      6.95606656	      1.87838509	     19.79729942	      0.34552806	      4.57490196	     -5.58648594	     -7.49999987	      1.79762951	     -5.55624240	      6.81364975	      7.53733993	    -14.58123589	      3.97406298	     22.08575014	     93.67829485	      4.74247245	    -10.43337032	     -0.47977708	      6.33522673	     95.14412593
     30.51666670	     -4.02428071	      5.38037673	     -1.40221266	      0.93445921	      0.80125491	      0.70425411	     -4.77179147	     -6.84270788	     -1.13255674	     40.12743351	      0.70035584	     -8.39306254	    -10.76109815	     -7.49999987	     27.29132139	      7.72189809	      2.01497987	     20.02990565	      0.34958780	      5.85280472	     -5.18635788	     -7.49999987	      1.99882994	     -6.16069907	      6.32419597	      6.62709932	    -13.92017589	      4.08243820	     20.92508496	     93.93516808	      4.53532722	    -10.70704971	     -0.18863873	      6.59290591	     95.14724760
     30.53333330	     -4.07876467	      5.63549569	     -1.67158220	      0.93432111	      0.80546160	      0.70172636	     -0.78380964	     -7.40073034	     -0.51104718	     46.62730922	      0.81380007	    -13.14057604	    -12.61745642	     -7.49999987	     25.66510396	      8.09388274	      2.03482520	     19.63915204	      0.34276787	      6.97291373	     -4.74665147	     -7.49999987	      2.10084160	     -6.38187895	      5.84834042	      5.93832680	    -13.43503155	      4.20893379	     20.12883619	     94.20461423	      4.32095989	    -10.88911053	      0.14146076	      6.99192326	     95.15158870
     30.55000000	     -4.64310419	      5.49995216	     -1.96255165	      0.93365023	      0.80671186	      0.69959850	      3.67105546	     -7.32537407	      0.14519947	     52.01603438	      0.90785106	    -15.36325557	    -13.91872099	     -7.49999987	     24.69334752	      7.97334352	      1.91446230	     19.23774364	      0.33576197	      7.99714676	     -4.29873913	     -7.49999987	      2.80221420	     -6.07077866	      5.41157026	      5.19087400	    -13.09295931	      4.38195108	     19.21887658	     94.77954880	      4.11906410	    -10.99320690	      0.70117312	      7.51511504	     95.27457245
     30.56666670	     -5.04293049	      5.27883941	     -2.35501075	      0.93186110	      0.80483087	      0.69763178	      7.83033366	     -7.06448412	      0.73361233	     56.41150401	      0.98456648	    -15.11085023	    -14.38085411	     -7.49999987	     23.59262642	      7.74444790	      1.66040516	     18.74576970	      0.32717540	      8.43336083	     -4.17226192	     -7.49999987	      3.25420762	     -5.62202809	      4.81105261	      4.57521268	    -12.82010930	      4.76556881	     18.52019582	     92.69270641	      4.07790892	    -10.89967366	      1.65597653	      7.77579067	     92.58713882
     30.58333330	     -5.67872504	      4.94495688	     -2.67763963	      0.93045889	      0.80364670	      0.69667820	     12.11558717	     -6.55427487	      1.13484227	     60.08892413	      1.04874957	    -13.60975195	    -15.16294671	     -7.49999987	     22.83221115	      7.40862150	      1.46627700	     18.40257343	      0.32118550	      8.75204528	     -4.30607239	     -7.49999987	      3.94917502	     -5.02008753	      4.34432126	      3.58896417	    -12.63883607	      4.77845048	     18.24815235	     92.18866670	      4.21364486	    -10.82370125	      2.14810407	      8.29558235	     91.75076892
     30.60000000	     -6.37648458	      4.62843990	     -2.91809259	      0.93017118	      0.80709046	      0.69665438	     16.30187949	     -6.03730844	      1.33678210	     63.10160837	      1.10133083	    -10.87070758	    -15.35270732	     -7.49999987	     22.06316982	      7.16170369	      1.61737872	     17.98147750	      0.31383599	      8.79524809	     -4.97204124	     -7.49999987	      4.81122999	     -4.45527482	      3.58192632	      2.84970623	    -12.34550568	      4.89134826	     17.46739577	     91.87711262	      4.28113362	    -10.80818646	      2.76243060	      8.66281683	     91.11780187
     30.61666670	     -7.19830439	      4.28017140	     -2.96865254	      0.93005196	      0.81277418	      0.69650893	     20.34797115	     -5.40021819	      1.42412953	     65.12991750	      1.13673150	     -7.68828566	    -15.64580892	     -7.49999987	     21.28374322	      6.92675908	      2.06372360	     17.40501727	      0.30377486	      8.81557395	     -5.65491493	     -7.49999987	      5.92809042	     -3.87668402	      2.54964935	      2.26721482	    -12.26772080	      6.62346898	     16.47811784	     94.67912947	      4.18746867	    -11.14561125	      5.83908023	      9.26893066	     92.61821064
     30.63333330	     -7.44147359	      3.92993163	     -3.00300365	      0.92900464	      0.81604392	      0.69549893	     23.47965222	     -4.74660063	      1.45910969	     65.94569450	      1.15096950	     -3.76722932	    -15.42551770	     -7.49999987	     19.73359029	      6.66641201	      2.36759876	     16.62406036	      0.29014459	      9.16232574	     -5.79835062	     -7.49999987	      6.23982235	     -3.37073511	      1.70149226	      1.64596672	    -12.04810543	      6.13563606	     15.91310599	     94.41203008	      4.63235341	    -11.24883009	      5.78815975	      9.69388181	     92.13807422
     30.65000000	     -7.74956743	      3.48462207	     -2.80712987	      0.92723484	      0.81463803	      0.69329944	     26.31080614	     -4.09604936	      1.24205972	     65.44303785	      1.14219648	      0.37581651	    -15.15332073	     -7.49999987	     18.28721819	      6.38053408	      3.04700783	     15.93328600	      0.27808830	      9.46555996	     -6.29798001	     -7.49999987	      6.64331515	     -2.73986296	      0.46910506	      1.33788430	    -11.96945655	      6.33560586	     15.06914906	     95.78875346	      5.04668885	    -11.53487418	      7.92224028	     10.25044340	     92.77043284
     30.66666670	     -7.98631915	      3.04084938	     -2.60481267	      0.92584570	      0.81165286	      0.69135884	     28.70945069	     -3.48414628	      1.02576974	     63.64049070	      1.11073610	      4.13658029	    -14.89016354	     -7.49999987	     16.80142990	      6.02113655	      3.38377793	     15.34342945	      0.26779336	     10.20645552	     -6.01016898	     -7.49999987	      6.94261294	     -2.11482128	     -0.52403437	      0.73262623	    -11.94813880	      5.97613927	     14.76548417	     95.75345378	      5.71570056	    -11.59276021	      7.81275379	     10.71962150	     92.63350651
     30.68333330	     -8.29513109	      2.59743282	     -2.28752063	      0.92512613	      0.81041701	      0.69003528	     30.75160741	     -2.96425849	      0.73508334	     60.65181476	      1.05857386	      6.77104396	    -14.78772629	     -7.49999987	     15.40026889	      5.68918003	      3.89513047	     14.76974649	      0.25778071	     10.88061083	     -5.87152062	     -7.49999987	      7.38412566	     -1.49683797	     -1.62936052	      0.14586439	    -11.89866481	      5.69793610	     14.23530999	     95.83605236	      6.36759149	    -11.69644976	      7.79939563	     11.10355949	     92.66838885
     30.70000000	     -8.60827903	      2.24382247	     -1.92817910	      0.92401430	      0.81176832	      0.68903361	     32.35384819	     -2.55873182	      0.54050544	     56.63762749	      0.98851308	      8.10926527	    -14.86385997	     -7.49999987	     13.98825928	      5.40472257	      4.21832044	     14.10109267	      0.24611050	     11.56587306	     -5.19809394	     -7.49999987	      7.87038625	     -1.01482943	     -2.81238289	     -0.34572075	    -11.66354339	      5.31373513	     13.43145085	     93.29336487	      6.92146390	    -11.83790687	      7.62962057	     11.42738127	     90.27261544
     30.71666670	     -8.71332777	      1.80032518	     -1.42861148	      0.92193689	      0.81413015	      0.68724739	     33.26628625	     -2.29293438	      0.08061427	     51.78151892	      0.90375800	      8.79502939	    -14.27721455	     -7.49999987	     12.37816114	      5.06040744	      4.86639937	     13.34371011	      0.23289168	     12.19054260	     -4.62098756	     -7.49999987	      8.07188770	     -0.39165834	     -4.22968379	     -0.74457425	    -11.48710969	      3.10148647	     12.67825137	     98.75683510	      7.38326309	    -12.21394109	      7.92558221	     11.96752181	     94.04737024
     30.73333330	     -9.28882374	      1.62143096	     -0.98650954	      0.91935009	      0.81433228	      0.68507710	     34.53586443	     -2.22572247	     -0.02998917	     46.71287081	      0.81529340	      8.31776847	    -14.37268925	     -7.49999987	     11.44046397	      4.91084504	      5.07317274	     12.64801019	      0.22074942	     12.81214047	     -3.70805960	     -7.49999987	      9.02840624	     -0.16781814	     -5.35622742	     -1.44661043	    -11.38491393	      2.91165106	     12.01883710	     96.78032764	      7.81304537	    -12.43280450	      7.43065217	     11.99871621	     92.38838215
     30.75000000	     -9.22178671	      1.40461985	     -0.61346551	      0.91638192	      0.81347034	      0.68263819	     34.92172147	     -2.18197810	     -0.05861811	     41.36837408	      0.72201433	      7.46599482	    -14.18141953	     -7.49999987	      9.91922216	      4.72495390	      5.28123153	     11.94268114	      0.20843911	     13.58704319	     -2.92331664	     -7.49999987	      8.85286934	      0.18460329	     -6.32282312	     -1.87979756	    -11.46958694	      2.72332901	     11.48606704	     95.92062299	      8.42917497	    -12.68598931	      7.26001774	     12.47682553	     91.81713001
     30.76666670	     -9.03095122	      1.23129305	     -0.25234469	      0.91389578	      0.81164663	      0.68067221	     35.04104126	     -2.24617870	     -0.14013158	     35.83350440	      0.62541263	      6.33713120	    -13.80943968	     -7.49999987	      8.39034226	      4.55532427	      5.00321205	     11.41701642	      0.19926453	     14.76918396	     -1.71371932	     -7.49999987	      8.52691163	      0.49876333	     -7.29060388	     -2.08461589	    -11.62544911	      2.34011780	     10.80722965	     95.79292749	      8.99566311	    -12.95698173	      7.37931344	     12.93157541	     91.92259558
